<svg id="Layer_1_1_" enable-background="new 0 0 64 64" height="512" viewBox="0 0 64 64" width="512" xmlns="http://www.w3.org/2000/svg"><path d="m26.13 31.684 2.422 1.211c.143.07.296.105.448.105.246 0 .488-.09.677-.264.305-.281.405-.722.251-1.107l-1.497-3.743c-.458-1.146-1.551-1.886-2.785-1.886-.121 0-.241.022-.354.064l-2.292.867-2.292-.867c-.113-.042-.233-.064-.354-.064-1.234 0-2.327.74-2.786 1.886l-1.497 3.743c-.154.386-.054.826.251 1.107.306.282.754.343 1.125.159l2.422-1.211c1.961-.981 4.301-.981 6.261 0zm-2.776-2.748 2.445-.924c.347.053.643.284.776.618l.521 1.301-.07-.035c-1.169-.584-2.443-.898-3.726-.94.018-.008.035-.014.054-.02zm-4.379.959-.07.035.521-1.301c.133-.334.429-.565.776-.618l2.445.924c.018.007.036.013.054.019-1.282.043-2.557.356-3.726.941z"/><path d="m54.636 40.615 1.414 1.414c.195.195.451.293.707.293s.512-.098.707-.293l4.243-4.243c.391-.391.391-1.023 0-1.414l-1.414-1.414c-.391-.391-1.023-.391-1.414 0l-1.415-1.415c.391-.391.391-1.023 0-1.414l-3.416-3.416c-2.969-2.968-7.199-4.25-11.315-3.426l-4.557.913c-.467.093-.804.504-.804.98s.336.887.804.98l6.278 1.255c.325.065.62.223.854.458.129.13.251.246.363.353.175.167.394.375.421.396 0 .004-.005.099-.134.361-.45.92-1.166 3.333-1.405 4.158l-7.987 7.987c-3.053-1.335-6.201-2.409-7.567-2.857v-3.895c3.581-2.079 6-5.946 6-10.376h.5c1.93 0 3.5-1.57 3.5-3.5s-1.569-3.5-3.499-3.5h-.5v-1h-.045l-.373-8.022c-.002-.037-.005-.073-.011-.109-.431-2.73-2.066-5.063-4.486-6.4-2.419-1.337-5.265-1.479-7.806-.39l-4.49 1.924c-4.314.112-7.789 3.657-7.789 7.997 0 .047.003.095.01.142l.837 5.858h-.347c-1.93 0-3.5 1.57-3.5 3.5s1.57 3.5 3.5 3.5h.5c0 4.43 2.419 8.297 6 10.376v3.892c-5.021 1.61-15 5.248-15 8.732v12c0 .552.448 1 1 1h31 15c.181 0 .359-.049.515-.143l3.485-2.091v1.234c0 .552.448 1 1 1h7c.552 0 1-.448 1-1v-3-8c0-.347-.18-.668-.474-.851-.295-.182-.663-.198-.973-.044-3.566 1.782-7.752 2.001-11.483.603l-1.719-.645c-.399-.15-.847-.031-1.119.296l-2.232 2.679v-3.038c0-.955-.63-1.886-1.939-2.881l6.751-6.751 4.019-1.34c.147-.049.281-.132.391-.242l1.415 1.415c-.391.391-.391 1.024-.001 1.414zm-15.556 5.657-1.414-1.414 7.779-7.779 1.414 1.414zm-9.9 11.314-2.829-2.829 9.192-9.192 2.829 2.829zm-4.899-3.586h-10.281v-5.485l1.063 2.836c.096.256.292.461.544.568.126.054.259.081.393.081s.268-.027.394-.081l6.606-2.831 4.335 1.858zm-14.281-8.94c.633-.283 1.301-.567 2-.851v9.791h-2zm24.043-.822-5.185 5.185-4.107-1.76 3.956-3.956c.188-.187.293-.442.293-.707v-.619c1.193.402 3.068 1.061 5.043 1.857zm-6.293-21.238c0-.138.112-.25.25-.25s.25.112.25.25c0 .275-.5.275-.5 0zm-1.285.823c-.273-.179-.465-.473-.465-.823s.192-.644.465-.823c-.133.247-.215.524-.215.823s.082.576.215.823zm2.967-1.823h1.568c.551 0 1 .449 1 1s-.449 1-1 1h-1.568c.199-.284.318-.628.318-1s-.119-.716-.318-1zm1.568-2h-4c-1.302 0-2.402.839-2.816 2h-2.369c-.414-1.161-1.514-2-2.816-2h-4c-.771 0-1.468.301-2 .78v-.674l1.397-6.548c.288-1.057 1.038-1.892 2.058-2.291s2.138-.295 3.066.286l.437.273c1.87 1.168 4.238 1.096 6.032-.186.862-.617 1.939-.799 2.957-.5 1.017.298 1.826 1.033 2.191 1.938l1.863 6.072v1.631c-.532-.48-1.229-.781-2-.781zm-13 2.75c.138 0 .25.112.25.25 0 .275-.5.275-.5 0 0-.138.112-.25.25-.25zm-1.432 1.25h-1.568c-.551 0-1-.449-1-1s.449-1 1-1h1.568c-.199.284-.318.628-.318 1s.119.716.318 1zm2.967-1.823c.273.179.465.473.465.823s-.192.644-.465.823c.133-.246.215-.524.215-.823s-.082-.576-.215-.823zm15.965-1.177c.827 0 1.5.673 1.5 1.5s-.673 1.5-1.5 1.5h-.5v-3zm-17.5-14c.135 0 .27-.027.394-.081l4.672-2.002c1.97-.842 4.176-.733 6.051.302 1.86 1.028 3.122 2.814 3.469 4.909l.071 1.54c-.694-1.181-1.807-2.054-3.147-2.447-1.609-.471-3.316-.183-4.682.792-1.133.81-2.628.856-3.81.117l-.437-.273c-1.469-.918-3.239-1.084-4.855-.452-1.615.632-2.803 1.954-3.272 3.681l-.259 1.212-.195-1.366c.037-3.277 2.714-5.932 6-5.932zm-7.5 17c-.827 0-1.5-.673-1.5-1.5s.673-1.5 1.5-1.5h.5v3zm2.5 2v-.78c.532.48 1.229.78 2 .78h4c1.302 0 2.402-.839 2.816-2h2.369c.414 1.161 1.514 2 2.816 2h4c.771 0 1.468-.301 2-.78v.78c0 5.514-4.486 10-10 10s-10.001-4.486-10.001-10zm10 12c1.404 0 2.747-.255 4-.7v5.286l-4 4-4-4v-5.286c1.253.445 2.596.7 4 .7zm-5.707 5.707 3.956 3.956-4.68 2.006-2.368-6.315c.904-.335 1.842-.663 2.799-.98v.626c0 .265.105.52.293.707zm-13.293 5.293c0-.659 1.552-1.764 4-2.995v13.995h-4zm6 11v-4h14.766l3.707 3.707c.195.195.451.293.707.293s.512-.098.707-.293l6.113-6.113v2.156c-1.715.26-3 1.736-3 3.48v.77h-3.82zm38.723 0h-13.723v-.769c0-.769.575-1.42 1.337-1.516l2.962-.37c1.182-.148 2.295-.552 3.286-1.163l.735 1.102c.748 1.122 2.162 1.607 3.445 1.182l4.918-1.64c.307-.104.636-.053.9.137.178.128.281.313.344.513zm6.277 0v-1h5v1zm-7.687-8.814 1.054.396c3.756 1.408 7.915 1.377 11.632-.049v5.467h-5.107c-.174-.661-.564-1.245-1.139-1.659-.792-.571-1.777-.721-2.703-.413l-4.918 1.64c-.427.143-.899-.02-1.148-.394l-.83-1.245c.15-.154.297-.31.436-.476zm-5.313-2.186v5.15c-.858.645-1.862 1.075-2.948 1.211l-1.052.131v-3.898l2.494-2.494c.391-.391.391-1.023 0-1.414l.141-.141c1.347.966 1.365 1.449 1.365 1.455zm6.542-11.65-1.973-1.973c.323-1.091.879-2.885 1.187-3.515.805-1.646.003-2.41-.705-3.084-.102-.097-.212-.202-.329-.319-.514-.515-1.163-.862-1.876-1.004l-1.359-.272c3.346-.55 6.739.538 9.146 2.945l2.709 2.709-3.369 3.369zm6.094-.977 1.415-1.415 2.122 2.122c.386.385 1.008.39 1.399.015l-2.814 2.814-.707-.707.707-.707z"/></svg>