<svg id="Capa_1" enable-background="new 0 0 512 512" height="512" viewBox="0 0 512 512" width="512" xmlns="http://www.w3.org/2000/svg" xmlns:xlink="http://www.w3.org/1999/xlink"><linearGradient id="SVGID_1_" gradientUnits="userSpaceOnUse" x1="256" x2="256" y1="512" y2="0"><stop offset="0" stop-color="#addcff"/><stop offset=".5028" stop-color="#eaf6ff"/><stop offset="1" stop-color="#eaf6ff"/></linearGradient><linearGradient id="SVGID_2_" gradientUnits="userSpaceOnUse" x1="256" x2="256" y1="150.469" y2="361.531"><stop offset="0" stop-color="#5558ff"/><stop offset="1" stop-color="#00c0ff"/></linearGradient><g><g><circle cx="256" cy="256" fill="url(#SVGID_1_)" r="256"/></g><g><g><path d="m344.823 150.469h-177.646c-34.281 0-62.177 27.896-62.177 62.177v88.095c0 15.379 8.015 29.883 20.931 37.854 18.45 11.372 38.132 18.684 60.156 22.336 22.579 3.791 44.707-10.791 50.284-33.161l6.167-24.678c1.553-6.185 7.087-10.504 13.462-10.504s11.91 4.32 13.462 10.504l6.167 24.678c5.63 22.527 27.882 36.917 50.284 33.17 22.05-3.669 41.74-10.981 60.181-22.362 12.9-7.955 20.906-22.432 20.906-37.803v-88.13c0-34.28-27.896-62.176-62.177-62.176zm-151.936 119.443-17.765 35.53c-2.186 4.359-7.489 6.172-11.918 3.973-4.389-2.195-6.167-7.529-3.973-11.918l17.765-35.529c2.203-4.389 7.529-6.15 11.918-3.973 4.389 2.193 6.167 7.528 3.973 11.917zm159.882 0-17.765 35.53c-2.186 4.359-7.489 6.172-11.918 3.973-4.389-2.195-6.167-7.529-3.973-11.918l17.765-35.529c2.195-4.389 7.529-6.15 11.918-3.973 4.39 2.193 6.168 7.528 3.973 11.917zm36.466-43.065c-6.138-4.825-13.553-7.978-21.928-8.789-73.869-7.148-148.762-7.148-222.614 0-8.246.799-15.718 3.876-21.928 8.52v-13.933c0-24.487 19.925-44.412 44.412-44.412h177.647c24.487 0 44.412 19.925 44.412 44.412v14.202z" fill="url(#SVGID_2_)"/></g></g></g></svg>